<svg width="508" height="200" viewBox="0 0 508 200" fill="none" xmlns="http://www.w3.org/2000/svg">
<path d="M265.664 39.4624C271.625 39.4624 280.372 39.3448 289.84 45.4966C297.414 50.4181 301.142 57.565 301.142 63.5991C301.142 77.5434 299.693 102.07 301.142 105.838C303.075 110.866 309.433 110.866 313.3 109.861C313.3 109.908 313.288 113.908 311.273 117.907C309.258 121.907 306.307 122.924 306.274 122.935C306.25 122.941 302.037 123.941 298.54 123.941C295.033 123.941 290.232 123.477 286.939 118.913C283.647 114.349 283.452 112.097 283.072 110.867C278.338 119.479 271.658 124.931 260.728 124.931C252.443 124.931 245.494 123.414 240.352 118.913L240.29 118.859C236.998 115.977 232.246 111.816 232.246 102.821C232.246 90.7527 235.657 83.7125 248.263 78.6841C263.685 72.5324 282.098 73.6553 282.029 63.4126C282.01 60.5813 279.415 58.7953 278.231 57.5649C277.048 56.3346 273.179 53.5631 262.764 54.5474C252.349 55.5317 243.684 60.7283 240.528 63.5991H237.312L242.378 44.4907C245.278 43.4851 259.703 39.4624 265.664 39.4624ZM456.217 39.4614C462.178 39.4614 470.925 39.3439 480.393 45.4956C487.967 50.417 491.694 57.564 491.694 63.5981C491.694 77.5419 490.246 102.068 491.694 105.837C493.628 110.865 499.986 110.866 503.853 109.861C503.852 109.92 503.837 113.913 501.826 117.906C499.805 121.917 496.843 122.93 496.827 122.935C496.798 122.942 492.588 123.94 489.093 123.94C485.586 123.94 480.785 123.476 477.492 118.912C474.2 114.348 474.004 112.097 473.625 110.867C468.891 119.479 462.211 124.93 451.28 124.93C442.996 124.93 436.046 123.413 430.904 118.912L430.844 118.859C427.552 115.977 422.799 111.816 422.799 102.821C422.799 90.7525 426.21 83.7126 438.815 78.6841C454.237 72.5323 472.65 73.6545 472.582 63.4116C472.563 60.5804 469.968 58.7943 468.784 57.564C467.601 56.3336 463.731 53.5631 453.316 54.5474C442.901 55.5317 434.237 60.7273 431.081 63.5981H427.865L432.931 44.4897C435.831 43.484 450.256 39.4615 456.217 39.4614ZM399.562 0.180172C400.622 -0.363535 401.996 0.388556 401.996 1.57959V106.536C403.18 113.302 407.222 117.558 408.188 118.691C408.319 118.845 408.181 120.226 408.181 121.456H384.481L384.243 111.398L384.007 110.43C378.279 119.027 370.729 124.474 360.184 124.474C340.429 124.474 324.082 106.118 324.082 82.2349C324.082 58.3516 340.096 38.9899 359.851 38.9897C369.26 38.99 377.82 43.3854 384.206 50.5679C384.23 44.4118 384.243 38.5976 384.243 33.6597C384.243 27.9179 383.77 17.2159 381.876 12.2944C379.982 7.37316 376.566 7.12626 378.325 6.14209C380.086 5.15776 389.925 3.43588 393.712 2.45166C395.938 1.87311 398 0.982302 399.562 0.180172ZM128.653 38.9907C134.614 38.9907 143.362 38.8731 152.83 45.0249C160.404 49.9463 164.132 57.0934 164.132 63.1274C164.132 77.0715 162.683 101.598 164.132 105.367C166.065 110.395 172.423 110.395 176.29 109.389C176.29 109.389 176.29 113.412 174.264 117.435C172.249 121.434 169.299 122.451 169.264 122.463C169.22 122.474 165.019 123.469 161.53 123.469C158.023 123.469 153.223 123.005 149.93 118.441C146.637 113.876 146.442 111.625 146.062 110.395C141.328 119.007 134.648 124.459 123.718 124.459C115.433 124.459 108.484 122.943 103.342 118.441L103.28 118.387C99.9884 115.505 95.2365 111.345 95.2363 102.35C95.2364 90.2819 98.6463 83.2409 111.252 78.2124C126.674 72.0607 145.088 73.1842 145.02 62.9409C145 60.1097 142.405 58.3236 141.222 57.0933C140.038 55.8629 136.168 53.0916 125.754 54.0757C115.339 55.0599 106.675 60.2565 103.519 63.1274H100.302L105.368 44.019C108.27 43.013 122.692 38.9909 128.653 38.9907ZM10.1318 39.9927C10.1575 39.9949 15.8296 40.4942 27.3555 40.9985C38.904 41.5038 79.0023 40.9988 79.0273 40.9985V44.0161L29.3818 109.386C35.1231 109.386 48.4298 109.185 55.7246 108.38C64.843 107.375 67.8829 104.358 71.9355 102.346C75.1775 100.737 78.0142 96.9823 79.0273 95.3061H82.0664L75.9883 121.455H0V118.437L49.6455 54.0727H31.4082C24.3162 54.0728 19.2503 55.0783 14.1846 58.0952C10.1319 60.5089 7.76724 64.4649 7.0918 66.1411L3.03906 65.1352L10.1318 39.9927ZM210.138 0.180172C211.197 -0.363951 212.571 0.388313 212.571 1.57959V106.536C213.755 113.302 217.797 117.559 218.764 118.691C218.894 118.844 218.764 119.346 218.764 120.576L187.828 120.684V118.564C192.661 115.547 192.688 109.981 193.635 106.536C194.582 103.091 193.527 58.1568 193.527 33.9595C193.527 28.2177 192.381 18.7667 190.487 13.8452C188.594 8.92398 184.675 7.78944 186.435 6.80517C188.195 5.82086 200.499 3.43595 204.286 2.45166C206.512 1.87307 208.575 0.982447 210.138 0.180172ZM282.038 80.5347C281.249 80.9449 278.487 81.7654 273.754 82.9956C266.653 84.8413 251.267 86.6252 251.267 98.9897C251.267 107.602 258.762 110.883 263.102 111.293C265.863 111.704 272.201 111.677 278.487 105.142C284.774 98.6069 283.222 86.2766 282.038 80.5347ZM472.591 80.5347C471.801 80.9449 469.039 81.7655 464.307 82.9956C457.205 84.8413 441.821 86.6252 441.82 98.9897C441.821 107.602 449.315 110.883 453.654 111.293C456.416 111.704 462.754 111.677 469.04 105.142C475.326 98.6069 473.774 86.2766 472.591 80.5347ZM145.028 80.063C144.239 80.4731 141.478 81.2936 136.744 82.5239C129.643 84.3697 114.257 86.1536 114.257 98.5181C114.257 107.131 121.752 110.412 126.092 110.822C128.853 111.232 135.191 111.206 141.478 104.67C147.764 98.135 146.212 85.8047 145.028 80.063ZM362.058 54.4936C350.846 54.4936 341.756 66.6505 341.756 81.647C341.756 96.6436 350.845 108.801 362.058 108.801C373.269 108.801 382.359 104.358 382.359 81.647C382.359 58.0978 373.269 54.4938 362.058 54.4936Z" fill="#226B39"/>
<path d="M24.3063 174.033V178.118H9.79066V185.084H22.665V189.168H9.79066V199.563H5.30469V174.033H24.3063Z" fill="#226B39"/>
<path d="M51.9971 199.563H46.7088L40.4357 190.664H34.8191V199.563H30.3331V174.033H41.7122C43.1711 174.033 44.484 174.227 45.6511 174.616C46.8425 174.981 47.8394 175.516 48.6418 176.221C49.4684 176.902 50.1006 177.753 50.5383 178.774C50.9759 179.771 51.1948 180.889 51.1948 182.13C51.1948 183.199 51.0367 184.16 50.7206 185.011C50.4289 185.837 50.0155 186.579 49.4806 187.235C48.9457 187.868 48.3014 188.415 47.5476 188.877C46.8182 189.314 46.0037 189.655 45.104 189.898L51.9971 199.563ZM46.6358 182.385C46.6358 180.975 46.1739 179.917 45.2499 179.212C44.326 178.482 43.0252 178.118 41.3475 178.118H34.8191V186.688H41.384C42.9887 186.688 44.2652 186.299 45.2135 185.521C46.1617 184.743 46.6358 183.698 46.6358 182.385Z" fill="#226B39"/>
<path d="M76.7122 174.033V178.045H62.2695V184.683H75.0709V188.694H62.2695V195.551H76.8945V199.563H57.7835V174.033H76.7122Z" fill="#226B39"/>
<path d="M87.1036 180.707C87.1036 181.218 87.1887 181.655 87.3589 182.02C87.5291 182.385 87.8331 182.725 88.2707 183.041C88.7327 183.357 89.3527 183.649 90.1308 183.917C90.9331 184.184 91.9422 184.464 93.1579 184.755C94.4952 185.096 95.6744 185.473 96.6956 185.886C97.7411 186.299 98.6043 186.81 99.2851 187.418C99.9659 188.001 100.476 188.694 100.817 189.497C101.182 190.275 101.364 191.199 101.364 192.269C101.364 193.484 101.133 194.566 100.671 195.514C100.233 196.463 99.6133 197.265 98.8109 197.922C98.0086 198.578 97.0482 199.077 95.9297 199.417C94.8113 199.757 93.5834 199.928 92.2461 199.928C90.2767 199.928 88.3923 199.599 86.593 198.943C84.7938 198.262 83.1283 197.229 81.5965 195.843L84.2953 192.633C85.5354 193.703 86.7876 194.53 88.0519 195.113C89.3162 195.673 90.7508 195.952 92.3555 195.952C93.7414 195.952 94.8356 195.66 95.6379 195.077C96.4646 194.493 96.878 193.703 96.878 192.706C96.878 192.244 96.7929 191.831 96.6227 191.466C96.4768 191.101 96.185 190.773 95.7474 190.481C95.334 190.165 94.7505 189.874 93.9967 189.606C93.2673 189.339 92.3069 189.059 91.1155 188.767C89.7539 188.451 88.5382 188.099 87.4684 187.71C86.4228 187.321 85.5354 186.834 84.806 186.251C84.1008 185.667 83.5538 184.962 83.1647 184.135C82.8 183.309 82.6177 182.3 82.6177 181.108C82.6177 179.99 82.8365 178.981 83.2742 178.081C83.7118 177.157 84.3075 176.367 85.0612 175.711C85.8393 175.054 86.7632 174.556 87.8331 174.215C88.9029 173.851 90.07 173.668 91.3343 173.668C93.2065 173.668 94.8842 173.948 96.3674 174.507C97.8748 175.042 99.2851 175.832 100.598 176.878L98.1909 180.269C97.0238 179.418 95.8689 178.774 94.7262 178.336C93.5834 177.875 92.4285 177.644 91.2614 177.644C89.9484 177.644 88.9272 177.947 88.1978 178.555C87.4684 179.139 87.1036 179.856 87.1036 180.707Z" fill="#226B39"/>
<path d="M124.401 188.804H112.22V199.563H107.734V174.033H112.22V184.646H124.401V174.033H128.887V199.563H124.401V188.804Z" fill="#226B39"/>
<path d="M140.586 199.563H135.735V194.566H140.586V199.563Z" fill="#226B39"/>
<path d="M178.456 174.033V178.118H163.94V185.084H176.815V189.168H163.94V199.563H159.455V174.033H178.456Z" fill="#226B39"/>
<path d="M194.765 173.851L205.998 199.563H201.257L198.667 193.399H186.595L183.97 199.563H179.374L190.607 173.851H194.765ZM197.026 189.424L192.613 179.212L188.237 189.424H197.026Z" fill="#226B39"/>
<path d="M214.872 180.707C214.872 181.218 214.957 181.655 215.127 182.02C215.297 182.385 215.601 182.725 216.039 183.041C216.501 183.357 217.121 183.649 217.899 183.917C218.701 184.184 219.71 184.464 220.926 184.755C222.263 185.096 223.442 185.473 224.464 185.886C225.509 186.299 226.372 186.81 227.053 187.418C227.734 188.001 228.244 188.694 228.585 189.497C228.95 190.275 229.132 191.199 229.132 192.269C229.132 193.484 228.901 194.566 228.439 195.514C228.001 196.463 227.381 197.265 226.579 197.922C225.777 198.578 224.816 199.077 223.698 199.417C222.579 199.757 221.351 199.928 220.014 199.928C218.045 199.928 216.16 199.599 214.361 198.943C212.562 198.262 210.896 197.229 209.364 195.843L212.063 192.633C213.303 193.703 214.555 194.53 215.82 195.113C217.084 195.673 218.519 195.952 220.123 195.952C221.509 195.952 222.604 195.66 223.406 195.077C224.233 194.493 224.646 193.703 224.646 192.706C224.646 192.244 224.561 191.831 224.391 191.466C224.245 191.101 223.953 190.773 223.515 190.481C223.102 190.165 222.518 189.874 221.765 189.606C221.035 189.339 220.075 189.059 218.883 188.767C217.522 188.451 216.306 188.099 215.236 187.71C214.191 187.321 213.303 186.834 212.574 186.251C211.869 185.667 211.322 184.962 210.933 184.135C210.568 183.309 210.386 182.3 210.386 181.108C210.386 179.99 210.604 178.981 211.042 178.081C211.48 177.157 212.075 176.367 212.829 175.711C213.607 175.054 214.531 174.556 215.601 174.215C216.671 173.851 217.838 173.668 219.102 173.668C220.974 173.668 222.652 173.948 224.135 174.507C225.643 175.042 227.053 175.832 228.366 176.878L225.959 180.269C224.792 179.418 223.637 178.774 222.494 178.336C221.351 177.875 220.196 177.644 219.029 177.644C217.716 177.644 216.695 177.947 215.966 178.555C215.236 179.139 214.872 179.856 214.872 180.707Z" fill="#226B39"/>
<path d="M245.763 178.191V199.563H241.24V178.191H233.144V174.033H253.859V178.191H245.763Z" fill="#226B39"/>
<path d="M260.126 199.563H255.276V194.566H260.126V199.563Z" fill="#226B39"/>
<path d="M297.997 174.033V178.118H283.481V185.084H296.355V189.168H283.481V199.563H278.995V174.033H297.997Z" fill="#226B39"/>
<path d="M314.306 173.851L325.539 199.563H320.797L318.208 193.399H306.136L303.51 199.563H298.915L310.148 173.851H314.306ZM316.567 189.424L312.154 179.212L307.777 189.424H316.567Z" fill="#226B39"/>
<path d="M342.463 174.033C345.04 174.033 347.083 174.616 348.59 175.783C350.098 176.951 350.851 178.543 350.851 180.561C350.851 181.339 350.742 182.032 350.523 182.64C350.329 183.248 350.061 183.783 349.721 184.245C349.405 184.683 349.016 185.072 348.554 185.412C348.116 185.752 347.666 186.044 347.204 186.287C347.958 186.555 348.639 186.871 349.247 187.235C349.879 187.576 350.414 187.989 350.851 188.476C351.313 188.962 351.666 189.545 351.909 190.226C352.152 190.883 352.274 191.649 352.274 192.524C352.274 193.667 352.043 194.676 351.581 195.551C351.143 196.426 350.511 197.168 349.684 197.776C348.858 198.359 347.861 198.809 346.694 199.125C345.526 199.417 344.238 199.563 342.828 199.563H331.011V174.033H342.463ZM341.551 184.792C343.01 184.792 344.177 184.512 345.052 183.953C345.928 183.37 346.365 182.482 346.365 181.291C346.365 180.245 345.976 179.443 345.198 178.884C344.445 178.3 343.338 178.008 341.879 178.008H335.424V184.792H341.551ZM342.864 195.587C344.396 195.587 345.599 195.296 346.475 194.712C347.35 194.104 347.788 193.217 347.788 192.05C347.788 190.956 347.35 190.105 346.475 189.497C345.624 188.889 344.311 188.585 342.536 188.585H335.424V195.587H342.864Z" fill="#226B39"/>
<path d="M379.871 174.033V188.512C379.871 190.409 379.603 192.074 379.068 193.509C378.558 194.943 377.828 196.147 376.88 197.119C375.932 198.067 374.777 198.785 373.415 199.271C372.078 199.733 370.571 199.964 368.893 199.964C367.24 199.964 365.744 199.733 364.407 199.271C363.07 198.785 361.927 198.067 360.979 197.119C360.03 196.171 359.301 195.004 358.79 193.618C358.28 192.208 358.024 190.579 358.024 188.731V174.033H362.51V188.548C362.51 190.931 363.082 192.743 364.225 193.983C365.367 195.223 366.948 195.843 368.966 195.843C370.96 195.843 372.528 195.247 373.671 194.056C374.813 192.864 375.385 191.089 375.385 188.731V174.033H379.871Z" fill="#226B39"/>
<path d="M387.123 199.563V174.033H391.609V195.478H405.03V199.563H387.123Z" fill="#226B39"/>
<path d="M434.904 186.761C434.904 188.561 434.576 190.263 433.919 191.867C433.263 193.472 432.339 194.882 431.147 196.098C429.956 197.289 428.546 198.238 426.917 198.943C425.287 199.648 423.488 200 421.519 200C419.549 200 417.75 199.66 416.121 198.979C414.492 198.274 413.094 197.326 411.927 196.135C410.76 194.943 409.848 193.545 409.191 191.94C408.535 190.336 408.207 188.634 408.207 186.834C408.207 185.035 408.535 183.333 409.191 181.728C409.848 180.124 410.772 178.726 411.963 177.534C413.155 176.318 414.565 175.358 416.194 174.653C417.823 173.948 419.622 173.595 421.592 173.595C423.561 173.595 425.36 173.948 426.989 174.653C428.619 175.334 430.017 176.27 431.184 177.461C432.351 178.653 433.263 180.051 433.919 181.655C434.576 183.26 434.904 184.962 434.904 186.761ZM430.199 186.834C430.199 185.594 429.98 184.427 429.542 183.333C429.129 182.215 428.533 181.242 427.755 180.415C427.002 179.589 426.09 178.932 425.02 178.446C423.95 177.96 422.783 177.716 421.519 177.716C420.254 177.716 419.087 177.96 418.018 178.446C416.972 178.908 416.072 179.552 415.319 180.379C414.565 181.181 413.969 182.142 413.532 183.26C413.118 184.354 412.912 185.521 412.912 186.761C412.912 188.001 413.118 189.181 413.532 190.299C413.969 191.393 414.565 192.354 415.319 193.18C416.097 194.007 417.021 194.663 418.09 195.15C419.16 195.636 420.327 195.879 421.592 195.879C422.856 195.879 424.011 195.648 425.056 195.186C426.126 194.7 427.038 194.056 427.792 193.253C428.546 192.427 429.129 191.466 429.542 190.372C429.98 189.254 430.199 188.074 430.199 186.834Z" fill="#226B39"/>
<path d="M462.863 174.033V188.512C462.863 190.409 462.596 192.074 462.061 193.509C461.55 194.943 460.821 196.147 459.872 197.119C458.924 198.067 457.769 198.785 456.408 199.271C455.07 199.733 453.563 199.964 451.885 199.964C450.232 199.964 448.736 199.733 447.399 199.271C446.062 198.785 444.919 198.067 443.971 197.119C443.023 196.171 442.293 195.004 441.783 193.618C441.272 192.208 441.017 190.579 441.017 188.731V174.033H445.503V188.548C445.503 190.931 446.074 192.743 447.217 193.983C448.36 195.223 449.94 195.843 451.958 195.843C453.952 195.843 455.52 195.247 456.663 194.056C457.806 192.864 458.377 191.089 458.377 188.731V174.033H462.863Z" fill="#226B39"/>
<path d="M473.908 180.707C473.908 181.218 473.993 181.655 474.163 182.02C474.333 182.385 474.637 182.725 475.075 183.041C475.537 183.357 476.157 183.649 476.935 183.917C477.737 184.184 478.746 184.464 479.962 184.755C481.299 185.096 482.479 185.473 483.5 185.886C484.545 186.299 485.408 186.81 486.089 187.418C486.77 188.001 487.281 188.694 487.621 189.497C487.986 190.275 488.168 191.199 488.168 192.269C488.168 193.484 487.937 194.566 487.475 195.514C487.038 196.463 486.418 197.265 485.615 197.922C484.813 198.578 483.852 199.077 482.734 199.417C481.615 199.757 480.388 199.928 479.05 199.928C477.081 199.928 475.197 199.599 473.397 198.943C471.598 198.262 469.932 197.229 468.401 195.843L471.1 192.633C472.34 193.703 473.592 194.53 474.856 195.113C476.12 195.673 477.555 195.952 479.16 195.952C480.546 195.952 481.64 195.66 482.442 195.077C483.269 194.493 483.682 193.703 483.682 192.706C483.682 192.244 483.597 191.831 483.427 191.466C483.281 191.101 482.989 190.773 482.552 190.481C482.138 190.165 481.555 189.874 480.801 189.606C480.072 189.339 479.111 189.059 477.92 188.767C476.558 188.451 475.342 188.099 474.273 187.71C473.227 187.321 472.34 186.834 471.61 186.251C470.905 185.667 470.358 184.962 469.969 184.135C469.604 183.309 469.422 182.3 469.422 181.108C469.422 179.99 469.641 178.981 470.078 178.081C470.516 177.157 471.112 176.367 471.865 175.711C472.644 175.054 473.567 174.556 474.637 174.215C475.707 173.851 476.874 173.668 478.139 173.668C480.011 173.668 481.688 173.948 483.172 174.507C484.679 175.042 486.089 175.832 487.402 176.878L484.995 180.269C483.828 179.418 482.673 178.774 481.53 178.336C480.388 177.875 479.233 177.644 478.066 177.644C476.753 177.644 475.731 177.947 475.002 178.555C474.273 179.139 473.908 179.856 473.908 180.707Z" fill="#226B39"/>
<path d="M498.586 199.563H493.735V194.566H498.586V199.563Z" fill="#226B39"/>
</svg>
