<svg width="508" height="200" viewBox="0 0 508 200" fill="none" xmlns="http://www.w3.org/2000/svg">
<path d="M265.664 39.4632C271.625 39.4631 280.372 39.3456 289.84 45.4974C297.414 50.4188 301.142 57.5658 301.142 63.5999C301.142 77.5442 299.693 102.071 301.142 105.839C303.075 110.867 309.433 110.867 313.3 109.862C313.3 109.907 313.288 113.908 311.273 117.908C309.259 121.907 306.308 122.924 306.274 122.936C306.251 122.941 302.037 123.942 298.54 123.942C295.033 123.942 290.232 123.477 286.939 118.913C283.647 114.349 283.452 112.098 283.072 110.867C278.338 119.48 271.658 124.932 260.728 124.932C252.443 124.932 245.494 123.415 240.352 118.913L240.29 118.86C236.998 115.978 232.246 111.817 232.246 102.822C232.246 90.7535 235.657 83.7133 248.263 78.6849C263.685 72.5332 282.098 73.6561 282.029 63.4134C282.01 60.5821 279.415 58.7961 278.231 57.5657C277.048 56.3353 273.179 53.5639 262.764 54.5481C252.349 55.5324 243.684 60.729 240.528 63.5999H237.312L242.378 44.4915C245.278 43.4858 259.703 39.4632 265.664 39.4632ZM456.217 39.4622C462.178 39.4622 470.925 39.3447 480.393 45.4964C487.967 50.4178 491.694 57.5648 491.694 63.5989C491.694 77.5426 490.246 102.068 491.694 105.838C493.628 110.866 499.986 110.867 503.853 109.862C503.852 109.917 503.838 113.912 501.826 117.907C499.806 121.917 496.845 122.93 496.827 122.936C496.799 122.943 492.588 123.941 489.093 123.941C485.586 123.941 480.785 123.476 477.492 118.912C474.2 114.349 474.004 112.098 473.625 110.867C468.891 119.48 462.211 124.931 451.28 124.931C442.996 124.931 436.046 123.414 430.904 118.912L430.844 118.86C427.552 115.978 422.799 111.817 422.799 102.822C422.799 90.7533 426.21 83.7133 438.815 78.6849C454.237 72.5331 472.65 73.6553 472.582 63.4124C472.563 60.5811 469.968 58.795 468.784 57.5647C467.601 56.3343 463.731 53.5639 453.316 54.5481C442.901 55.5325 434.237 60.7281 431.081 63.5989H427.865L432.931 44.4915C435.831 43.4859 450.256 39.4622 456.217 39.4622ZM399.562 0.179968C400.622 -0.363735 401.996 0.389297 401.996 1.58036V106.535C403.18 113.302 407.222 117.559 408.188 118.692C408.319 118.846 408.181 120.226 408.181 121.455H384.481L384.243 111.399L384.007 110.43C378.279 119.027 370.73 124.474 360.184 124.475C340.429 124.475 324.082 106.119 324.082 82.2356C324.082 58.3524 340.096 38.9907 359.851 38.9905C369.26 38.9908 377.82 43.3862 384.206 50.5686C384.23 44.4126 384.243 38.5984 384.243 33.6604C384.243 27.9187 383.77 17.2157 381.876 12.2942C379.982 7.37342 376.566 7.12692 378.325 6.14286C380.086 5.15853 389.925 3.43567 393.712 2.45145C395.938 1.87288 398 0.982109 399.562 0.179968ZM128.653 38.9905C134.614 38.9905 143.362 38.8739 152.83 45.0257C160.404 49.947 164.132 57.0933 164.132 63.1272C164.132 77.0713 162.683 101.599 164.132 105.367C166.065 110.396 172.423 110.396 176.29 109.39C176.29 109.401 176.287 113.419 174.264 117.436C172.25 121.434 169.299 122.452 169.264 122.464C169.214 122.476 165.017 123.47 161.53 123.47C158.023 123.47 153.223 123.005 149.93 118.441C146.637 113.877 146.442 111.626 146.062 110.396C141.328 119.008 134.648 124.46 123.718 124.46C115.433 124.46 108.484 122.943 103.342 118.441L103.28 118.388C99.9883 115.506 95.2363 111.345 95.2363 102.35C95.2364 90.2819 98.6465 83.2416 111.252 78.2132C126.674 72.0615 145.088 73.1845 145.02 62.9417C145 60.1103 142.405 58.3234 141.222 57.0931C140.038 55.8627 136.168 53.0924 125.754 54.0765C115.339 55.0607 106.675 60.2563 103.519 63.1272H100.302L105.368 44.0198C108.27 43.0139 122.692 38.9907 128.653 38.9905ZM10.1318 39.9934C10.157 39.9957 15.8291 40.495 27.3555 40.9993C38.9041 41.5046 79.0028 40.9996 79.0273 40.9993V44.0169L29.3818 109.387C35.1231 109.387 48.4298 109.186 55.7246 108.381C64.843 107.375 67.8829 104.358 71.9355 102.347C75.1775 100.738 78.0142 96.983 79.0273 95.3069H82.0664L75.9883 121.455H0V118.439L49.6455 54.0735H31.4082C24.3162 54.0735 19.2503 55.079 14.1846 58.096C10.1319 60.5097 7.76724 64.4657 7.0918 66.1419L3.03906 65.136L10.1318 39.9934ZM210.138 0.179968C211.197 -0.363973 212.571 0.389105 212.571 1.58036V106.535C213.755 113.302 217.797 117.559 218.764 118.692C218.894 118.846 218.764 119.347 218.764 120.576L187.828 120.685V118.565C192.662 115.548 192.688 109.98 193.635 106.535C194.582 103.089 193.527 58.1573 193.527 33.9602C193.527 28.2186 192.381 18.7675 190.487 13.846C188.594 8.92459 184.675 7.79022 186.435 6.80594C188.194 5.82166 200.499 3.43575 204.286 2.45145C206.512 1.87286 208.575 0.982242 210.138 0.179968ZM282.038 80.5354C281.249 80.9456 278.487 81.7662 273.754 82.9964C266.653 84.8421 251.267 86.626 251.267 98.9905C251.267 107.603 258.762 110.884 263.102 111.294C265.863 111.704 272.201 111.678 278.487 105.143C284.774 98.6076 283.222 86.2774 282.038 80.5354ZM472.591 80.5354C471.801 80.9456 469.039 81.7662 464.307 82.9964C457.205 84.8421 441.821 86.626 441.82 98.9905C441.821 107.603 449.315 110.884 453.654 111.294C456.416 111.704 462.754 111.678 469.04 105.143C475.326 98.6076 473.774 86.2774 472.591 80.5354ZM145.028 80.0628C144.24 80.4729 141.477 81.2934 136.744 82.5237C129.643 84.3695 114.257 86.154 114.257 98.5188C114.257 107.131 121.752 110.412 126.092 110.823C128.853 111.233 135.191 111.205 141.478 104.67C147.764 98.1347 146.212 85.8044 145.028 80.0628ZM362.058 54.4934C350.846 54.4934 341.756 66.6513 341.756 81.6477C341.756 96.6442 350.846 108.801 362.058 108.801C373.269 108.801 382.359 104.359 382.359 81.6477C382.359 58.0986 373.269 54.4936 362.058 54.4934Z" fill="white"/>
<path d="M24.3063 174.033V178.118H9.79066V185.084H22.665V189.169H9.79066V199.563H5.30469V174.033H24.3063Z" fill="white"/>
<path d="M51.9971 199.563H46.7088L40.4357 190.664H34.8191V199.563H30.3331V174.033H41.7122C43.1711 174.033 44.484 174.228 45.6511 174.617C46.8425 174.982 47.8394 175.517 48.6418 176.222C49.4684 176.902 50.1006 177.753 50.5383 178.775C50.9759 179.772 51.1948 180.89 51.1948 182.13C51.1948 183.2 51.0367 184.16 50.7206 185.011C50.4289 185.838 50.0155 186.58 49.4806 187.236C48.9457 187.868 48.3014 188.415 47.5476 188.877C46.8182 189.315 46.0037 189.655 45.104 189.898L51.9971 199.563ZM46.6358 182.385C46.6358 180.975 46.1739 179.917 45.2499 179.212C44.326 178.483 43.0252 178.118 41.3475 178.118H34.8191V186.689H41.384C42.9887 186.689 44.2652 186.3 45.2135 185.522C46.1617 184.744 46.6358 183.698 46.6358 182.385Z" fill="white"/>
<path d="M76.7122 174.033V178.045H62.2695V184.683H75.0709V188.695H62.2695V195.551H76.8945V199.563H57.7835V174.033H76.7122Z" fill="white"/>
<path d="M87.1036 180.708C87.1036 181.218 87.1887 181.656 87.3589 182.021C87.5291 182.385 87.8331 182.726 88.2707 183.042C88.7327 183.358 89.3527 183.65 90.1308 183.917C90.9331 184.185 91.9422 184.464 93.1579 184.756C94.4952 185.096 95.6744 185.473 96.6956 185.887C97.7411 186.3 98.6043 186.81 99.2851 187.418C99.9659 188.002 100.476 188.695 100.817 189.497C101.182 190.275 101.364 191.199 101.364 192.269C101.364 193.485 101.133 194.567 100.671 195.515C100.233 196.463 99.6133 197.266 98.8109 197.922C98.0086 198.579 97.0482 199.077 95.9297 199.417C94.8113 199.758 93.5834 199.928 92.2461 199.928C90.2767 199.928 88.3923 199.6 86.593 198.943C84.7938 198.262 83.1283 197.229 81.5965 195.843L84.2953 192.634C85.5354 193.704 86.7876 194.53 88.0519 195.114C89.3162 195.673 90.7508 195.953 92.3555 195.953C93.7414 195.953 94.8356 195.661 95.6379 195.077C96.4646 194.494 96.878 193.704 96.878 192.707C96.878 192.245 96.7929 191.831 96.6227 191.467C96.4768 191.102 96.185 190.774 95.7474 190.482C95.334 190.166 94.7505 189.874 93.9967 189.607C93.2673 189.339 92.3069 189.06 91.1155 188.768C89.7539 188.452 88.5382 188.099 87.4684 187.71C86.4228 187.321 85.5354 186.835 84.806 186.251C84.1008 185.668 83.5538 184.963 83.1647 184.136C82.8 183.309 82.6177 182.3 82.6177 181.109C82.6177 179.99 82.8365 178.981 83.2742 178.082C83.7118 177.158 84.3075 176.368 85.0612 175.711C85.8393 175.055 86.7632 174.556 87.8331 174.216C88.9029 173.851 90.07 173.669 91.3343 173.669C93.2065 173.669 94.8842 173.948 96.3674 174.507C97.8748 175.042 99.2851 175.833 100.598 176.878L98.1909 180.27C97.0238 179.419 95.8689 178.775 94.7262 178.337C93.5834 177.875 92.4285 177.644 91.2614 177.644C89.9484 177.644 88.9272 177.948 88.1978 178.556C87.4684 179.139 87.1036 179.857 87.1036 180.708Z" fill="white"/>
<path d="M124.401 188.804H112.22V199.563H107.734V174.033H112.22V184.647H124.401V174.033H128.887V199.563H124.401V188.804Z" fill="white"/>
<path d="M140.586 199.563H135.735V194.567H140.586V199.563Z" fill="white"/>
<path d="M178.456 174.033V178.118H163.94V185.084H176.815V189.169H163.94V199.563H159.455V174.033H178.456Z" fill="white"/>
<path d="M194.765 173.851L205.998 199.563H201.257L198.667 193.4H186.595L183.97 199.563H179.374L190.607 173.851H194.765ZM197.026 189.424L192.613 179.212L188.237 189.424H197.026Z" fill="white"/>
<path d="M214.872 180.708C214.872 181.218 214.957 181.656 215.127 182.021C215.297 182.385 215.601 182.726 216.039 183.042C216.501 183.358 217.121 183.65 217.899 183.917C218.701 184.185 219.71 184.464 220.926 184.756C222.263 185.096 223.442 185.473 224.464 185.887C225.509 186.3 226.372 186.81 227.053 187.418C227.734 188.002 228.244 188.695 228.585 189.497C228.95 190.275 229.132 191.199 229.132 192.269C229.132 193.485 228.901 194.567 228.439 195.515C228.001 196.463 227.381 197.266 226.579 197.922C225.777 198.579 224.816 199.077 223.698 199.417C222.579 199.758 221.351 199.928 220.014 199.928C218.045 199.928 216.16 199.6 214.361 198.943C212.562 198.262 210.896 197.229 209.364 195.843L212.063 192.634C213.303 193.704 214.555 194.53 215.82 195.114C217.084 195.673 218.519 195.953 220.123 195.953C221.509 195.953 222.604 195.661 223.406 195.077C224.233 194.494 224.646 193.704 224.646 192.707C224.646 192.245 224.561 191.831 224.391 191.467C224.245 191.102 223.953 190.774 223.515 190.482C223.102 190.166 222.518 189.874 221.765 189.607C221.035 189.339 220.075 189.06 218.883 188.768C217.522 188.452 216.306 188.099 215.236 187.71C214.191 187.321 213.303 186.835 212.574 186.251C211.869 185.668 211.322 184.963 210.933 184.136C210.568 183.309 210.386 182.3 210.386 181.109C210.386 179.99 210.604 178.981 211.042 178.082C211.48 177.158 212.075 176.368 212.829 175.711C213.607 175.055 214.531 174.556 215.601 174.216C216.671 173.851 217.838 173.669 219.102 173.669C220.974 173.669 222.652 173.948 224.135 174.507C225.643 175.042 227.053 175.833 228.366 176.878L225.959 180.27C224.792 179.419 223.637 178.775 222.494 178.337C221.351 177.875 220.196 177.644 219.029 177.644C217.716 177.644 216.695 177.948 215.966 178.556C215.236 179.139 214.872 179.857 214.872 180.708Z" fill="white"/>
<path d="M245.763 178.191V199.563H241.24V178.191H233.144V174.033H253.859V178.191H245.763Z" fill="white"/>
<path d="M260.126 199.563H255.276V194.567H260.126V199.563Z" fill="white"/>
<path d="M297.997 174.033V178.118H283.481V185.084H296.355V189.169H283.481V199.563H278.995V174.033H297.997Z" fill="white"/>
<path d="M314.306 173.851L325.539 199.563H320.797L318.208 193.4H306.136L303.51 199.563H298.915L310.148 173.851H314.306ZM316.567 189.424L312.154 179.212L307.777 189.424H316.567Z" fill="white"/>
<path d="M342.463 174.033C345.04 174.033 347.083 174.617 348.59 175.784C350.098 176.951 350.851 178.544 350.851 180.562C350.851 181.34 350.742 182.033 350.523 182.641C350.329 183.248 350.061 183.783 349.721 184.245C349.405 184.683 349.016 185.072 348.554 185.412C348.116 185.753 347.666 186.045 347.204 186.288C347.958 186.555 348.639 186.871 349.247 187.236C349.879 187.576 350.414 187.99 350.851 188.476C351.313 188.962 351.666 189.546 351.909 190.227C352.152 190.883 352.274 191.649 352.274 192.524C352.274 193.667 352.043 194.676 351.581 195.551C351.143 196.427 350.511 197.168 349.684 197.776C348.858 198.36 347.861 198.81 346.694 199.126C345.526 199.417 344.238 199.563 342.828 199.563H331.011V174.033H342.463ZM341.551 184.792C343.01 184.792 344.177 184.513 345.052 183.954C345.928 183.37 346.365 182.483 346.365 181.291C346.365 180.246 345.976 179.443 345.198 178.884C344.445 178.301 343.338 178.009 341.879 178.009H335.424V184.792H341.551ZM342.864 195.588C344.396 195.588 345.599 195.296 346.475 194.713C347.35 194.105 347.788 193.217 347.788 192.05C347.788 190.956 347.35 190.105 346.475 189.497C345.624 188.889 344.311 188.585 342.536 188.585H335.424V195.588H342.864Z" fill="white"/>
<path d="M379.871 174.033V188.512C379.871 190.409 379.603 192.075 379.068 193.509C378.558 194.944 377.828 196.147 376.88 197.12C375.932 198.068 374.777 198.785 373.415 199.272C372.078 199.734 370.571 199.964 368.893 199.964C367.24 199.964 365.744 199.734 364.407 199.272C363.07 198.785 361.927 198.068 360.979 197.12C360.03 196.171 359.301 195.004 358.79 193.618C358.28 192.208 358.024 190.579 358.024 188.731V174.033H362.51V188.549C362.51 190.932 363.082 192.743 364.225 193.983C365.367 195.223 366.948 195.843 368.966 195.843C370.96 195.843 372.528 195.248 373.671 194.056C374.813 192.865 375.385 191.09 375.385 188.731V174.033H379.871Z" fill="white"/>
<path d="M387.123 199.563V174.033H391.609V195.479H405.03V199.563H387.123Z" fill="white"/>
<path d="M434.904 186.762C434.904 188.561 434.576 190.263 433.919 191.868C433.263 193.473 432.339 194.883 431.147 196.099C429.956 197.29 428.546 198.238 426.917 198.943C425.287 199.648 423.488 200.001 421.519 200.001C419.549 200.001 417.75 199.661 416.121 198.98C414.492 198.275 413.094 197.326 411.927 196.135C410.76 194.944 409.848 193.546 409.191 191.941C408.535 190.336 408.207 188.634 408.207 186.835C408.207 185.036 408.535 183.334 409.191 181.729C409.848 180.124 410.772 178.726 411.963 177.535C413.155 176.319 414.565 175.358 416.194 174.653C417.823 173.948 419.622 173.596 421.592 173.596C423.561 173.596 425.36 173.948 426.989 174.653C428.619 175.334 430.017 176.27 431.184 177.462C432.351 178.653 433.263 180.051 433.919 181.656C434.576 183.261 434.904 184.963 434.904 186.762ZM430.199 186.835C430.199 185.595 429.98 184.428 429.542 183.334C429.129 182.215 428.533 181.243 427.755 180.416C427.002 179.589 426.09 178.933 425.02 178.446C423.95 177.96 422.783 177.717 421.519 177.717C420.254 177.717 419.087 177.96 418.018 178.446C416.972 178.908 416.072 179.553 415.319 180.379C414.565 181.182 413.969 182.142 413.532 183.261C413.118 184.355 412.912 185.522 412.912 186.762C412.912 188.002 413.118 189.181 413.532 190.3C413.969 191.394 414.565 192.354 415.319 193.181C416.097 194.007 417.021 194.664 418.09 195.15C419.16 195.637 420.327 195.88 421.592 195.88C422.856 195.88 424.011 195.649 425.056 195.187C426.126 194.7 427.038 194.056 427.792 193.254C428.546 192.427 429.129 191.467 429.542 190.373C429.98 189.254 430.199 188.075 430.199 186.835Z" fill="white"/>
<path d="M462.863 174.033V188.512C462.863 190.409 462.596 192.075 462.061 193.509C461.55 194.944 460.821 196.147 459.872 197.12C458.924 198.068 457.769 198.785 456.408 199.272C455.07 199.734 453.563 199.964 451.885 199.964C450.232 199.964 448.736 199.734 447.399 199.272C446.062 198.785 444.919 198.068 443.971 197.12C443.023 196.171 442.293 195.004 441.783 193.618C441.272 192.208 441.017 190.579 441.017 188.731V174.033H445.503V188.549C445.503 190.932 446.074 192.743 447.217 193.983C448.36 195.223 449.94 195.843 451.958 195.843C453.952 195.843 455.52 195.248 456.663 194.056C457.806 192.865 458.377 191.09 458.377 188.731V174.033H462.863Z" fill="white"/>
<path d="M473.908 180.708C473.908 181.218 473.993 181.656 474.163 182.021C474.333 182.385 474.637 182.726 475.075 183.042C475.537 183.358 476.157 183.65 476.935 183.917C477.737 184.185 478.746 184.464 479.962 184.756C481.299 185.096 482.479 185.473 483.5 185.887C484.545 186.3 485.408 186.81 486.089 187.418C486.77 188.002 487.281 188.695 487.621 189.497C487.986 190.275 488.168 191.199 488.168 192.269C488.168 193.485 487.937 194.567 487.475 195.515C487.038 196.463 486.418 197.266 485.615 197.922C484.813 198.579 483.852 199.077 482.734 199.417C481.615 199.758 480.388 199.928 479.05 199.928C477.081 199.928 475.197 199.6 473.397 198.943C471.598 198.262 469.932 197.229 468.401 195.843L471.1 192.634C472.34 193.704 473.592 194.53 474.856 195.114C476.12 195.673 477.555 195.953 479.16 195.953C480.546 195.953 481.64 195.661 482.442 195.077C483.269 194.494 483.682 193.704 483.682 192.707C483.682 192.245 483.597 191.831 483.427 191.467C483.281 191.102 482.989 190.774 482.552 190.482C482.138 190.166 481.555 189.874 480.801 189.607C480.072 189.339 479.111 189.06 477.92 188.768C476.558 188.452 475.342 188.099 474.273 187.71C473.227 187.321 472.34 186.835 471.61 186.251C470.905 185.668 470.358 184.963 469.969 184.136C469.604 183.309 469.422 182.3 469.422 181.109C469.422 179.99 469.641 178.981 470.078 178.082C470.516 177.158 471.112 176.368 471.865 175.711C472.644 175.055 473.567 174.556 474.637 174.216C475.707 173.851 476.874 173.669 478.139 173.669C480.011 173.669 481.688 173.948 483.172 174.507C484.679 175.042 486.089 175.833 487.402 176.878L484.995 180.27C483.828 179.419 482.673 178.775 481.53 178.337C480.388 177.875 479.233 177.644 478.066 177.644C476.753 177.644 475.731 177.948 475.002 178.556C474.273 179.139 473.908 179.857 473.908 180.708Z" fill="white"/>
<path d="M498.586 199.563H493.735V194.567H498.586V199.563Z" fill="white"/>
</svg>
